<?xml version="1.0" encoding="UTF-8" standalone="no"?>
<svg
   xmlns:dc="http://purl.org/dc/elements/1.1/"
   xmlns:cc="http://creativecommons.org/ns#"
   xmlns:rdf="http://www.w3.org/1999/02/22-rdf-syntax-ns#"
   xmlns:svg="http://www.w3.org/2000/svg"
   xmlns="http://www.w3.org/2000/svg"
   xmlns:sodipodi="http://sodipodi.sourceforge.net/DTD/sodipodi-0.dtd"
   xmlns:inkscape="http://www.inkscape.org/namespaces/inkscape"
   viewBox="0 0 139.44933 153.92666"
   height="153.92667"
   width="139.44933"
   xml:space="preserve"
   id="svg2"
   version="1.1"
   sodipodi:docname="panopto_small.svg"
   inkscape:version="0.92.3 (2405546, 2018-03-11)"><sodipodi:namedview
     pagecolor="#ffffff"
     bordercolor="#666666"
     borderopacity="1"
     objecttolerance="10"
     gridtolerance="10"
     guidetolerance="10"
     inkscape:pageopacity="0"
     inkscape:pageshadow="2"
     inkscape:window-width="1853"
     inkscape:window-height="1025"
     id="namedview31"
     showgrid="false"
     fit-margin-top="0"
     fit-margin-left="0"
     fit-margin-right="0"
     fit-margin-bottom="0"
     inkscape:zoom="1.3286662"
     inkscape:cx="112.19647"
     inkscape:cy="105.54154"
     inkscape:window-x="67"
     inkscape:window-y="27"
     inkscape:window-maximized="1"
     inkscape:current-layer="g10" /><metadata
     id="metadata8"><rdf:RDF><cc:Work
         rdf:about=""><dc:format>image/svg+xml</dc:format><dc:type
           rdf:resource="http://purl.org/dc/dcmitype/StillImage" /><dc:title></dc:title></cc:Work></rdf:RDF></metadata><defs
     id="defs6"><linearGradient
       id="linearGradient20"
       spreadMethod="pad"
       gradientTransform="matrix(331.285,525.186,525.186,-331.285,393.106,-8.07004)"
       gradientUnits="userSpaceOnUse"
       y2="0"
       x2="1"
       y1="0"
       x1="0"><stop
         id="stop14"
         offset="0"
         style="stop-opacity:1;stop-color:#bfe470" /><stop
         id="stop16"
         offset="0.1133"
         style="stop-opacity:1;stop-color:#bfe470" /><stop
         id="stop18"
         offset="1"
         style="stop-opacity:1;stop-color:#287334" /></linearGradient><linearGradient
       id="linearGradient30"
       spreadMethod="pad"
       gradientTransform="matrix(629.477,0,0,-629.477,416.397,746.124)"
       gradientUnits="userSpaceOnUse"
       y2="0"
       x2="1"
       y1="0"
       x1="0"><stop
         id="stop24"
         offset="0"
         style="stop-opacity:1;stop-color:#287334" /><stop
         id="stop26"
         offset="0.226601"
         style="stop-opacity:1;stop-color:#287334" /><stop
         id="stop28"
         offset="1"
         style="stop-opacity:1;stop-color:#bfe470" /></linearGradient><linearGradient
       id="linearGradient38"
       spreadMethod="pad"
       gradientTransform="matrix(1.5708,500.276,500.276,-1.5708,248.631,442.951)"
       gradientUnits="userSpaceOnUse"
       y2="0"
       x2="1"
       y1="0"
       x1="0"><stop
         id="stop34"
         offset="0"
         style="stop-opacity:1;stop-color:#287334" /><stop
         id="stop36"
         offset="1"
         style="stop-opacity:1;stop-color:#bfe470" /></linearGradient></defs><g
     transform="matrix(1.3333333,0,0,-1.3333333,0,153.92666)"
     id="g10"><g
       transform="scale(0.1)"
       id="g12"><path
         id="path22"
         style="fill:url(#linearGradient20);fill-opacity:1;fill-rule:evenodd;stroke:none"
         d="M 94.7773,265.477 416.684,79.0703 510.316,24.9688 C 538.137,9.03906 570.109,0 604.234,0 c 34.414,0 66.672,9.17969 94.352,24.9688 L 951.672,171.199 c 56.488,33.145 94.058,94.129 94.198,162.723 V 447.711 L 828.207,582.465 416.684,344.402 280.609,265.613 c -27.386,-15.5 -59.078,-24.531 -92.918,-24.531 -33.699,0 -65.527,8.75 -92.9137,24.395 v 0"
         inkscape:connector-curvature="0" /><path
         id="path32"
         style="fill:url(#linearGradient30);fill-opacity:1;fill-rule:evenodd;stroke:none"
         d="m 1045.87,819.383 v -111.36 l -0.14,-370.222 c 0,69.883 -37.57,131.297 -93.917,164.16 l -131.204,75.906 -404.211,233.617 0.286,262.176 104.097,60.13 c 25.957,13.2 55.211,20.66 86.184,20.66 34.414,0 66.531,-9.18 94.344,-25.11 L 948.801,986.414 c 58.069,-33.152 97.069,-95.426 97.069,-167.031 v 0"
         inkscape:connector-curvature="0" /><path
         id="path40"
         style="fill:url(#linearGradient38);fill-opacity:1;fill-rule:evenodd;stroke:none"
         d="M 94.7773,265.477 C 38.1406,297.762 0,358.895 0,428.922 v 295.605 c 0,66.012 33.8398,123.985 85.1719,157.563 l 104.5231,60.414 310.582,179.376 c -50.472,-34.16 -83.734,-91.99 -83.734,-157.567 l 0.141,-619.911 -136.075,-78.789 c -27.386,-15.636 -59.078,-24.531 -92.918,-24.531 -33.699,0 -65.527,8.75 -92.9137,24.395 v 0"
         inkscape:connector-curvature="0" /><g
         transform="scale(10)"
         id="g56">
</g></g></g></svg>