<?xml version="1.0" encoding="UTF-8" standalone="no"?>
<svg
   xmlns:dc="http://purl.org/dc/elements/1.1/"
   xmlns:cc="http://creativecommons.org/ns#"
   xmlns:rdf="http://www.w3.org/1999/02/22-rdf-syntax-ns#"
   xmlns:svg="http://www.w3.org/2000/svg"
   xmlns="http://www.w3.org/2000/svg"
   viewBox="0 0 728.03998 153.93333"
   height="153.93333"
   width="728.03998"
   xml:space="preserve"
   id="svg2"
   version="1.1"><metadata
     id="metadata8"><rdf:RDF><cc:Work
         rdf:about=""><dc:format>image/svg+xml</dc:format><dc:type
           rdf:resource="http://purl.org/dc/dcmitype/StillImage" /></cc:Work></rdf:RDF></metadata><defs
     id="defs6"><linearGradient
       id="linearGradient20"
       spreadMethod="pad"
       gradientTransform="matrix(331.285,525.186,525.186,-331.285,393.106,-8.07004)"
       gradientUnits="userSpaceOnUse"
       y2="0"
       x2="1"
       y1="0"
       x1="0"><stop
         id="stop14"
         offset="0"
         style="stop-opacity:1;stop-color:#bfe470" /><stop
         id="stop16"
         offset="0.1133"
         style="stop-opacity:1;stop-color:#bfe470" /><stop
         id="stop18"
         offset="1"
         style="stop-opacity:1;stop-color:#287334" /></linearGradient><linearGradient
       id="linearGradient30"
       spreadMethod="pad"
       gradientTransform="matrix(629.477,0,0,-629.477,416.397,746.124)"
       gradientUnits="userSpaceOnUse"
       y2="0"
       x2="1"
       y1="0"
       x1="0"><stop
         id="stop24"
         offset="0"
         style="stop-opacity:1;stop-color:#287334" /><stop
         id="stop26"
         offset="0.226601"
         style="stop-opacity:1;stop-color:#287334" /><stop
         id="stop28"
         offset="1"
         style="stop-opacity:1;stop-color:#bfe470" /></linearGradient><linearGradient
       id="linearGradient38"
       spreadMethod="pad"
       gradientTransform="matrix(1.5708,500.276,500.276,-1.5708,248.631,442.951)"
       gradientUnits="userSpaceOnUse"
       y2="0"
       x2="1"
       y1="0"
       x1="0"><stop
         id="stop34"
         offset="0"
         style="stop-opacity:1;stop-color:#287334" /><stop
         id="stop36"
         offset="1"
         style="stop-opacity:1;stop-color:#bfe470" /></linearGradient></defs><g
     transform="matrix(1.3333333,0,0,-1.3333333,0,153.93333)"
     id="g10"><g
       transform="scale(0.1)"
       id="g12"><path
         id="path22"
         style="fill:url(#linearGradient20);fill-opacity:1;fill-rule:evenodd;stroke:none"
         d="M 94.7773,265.477 416.684,79.0703 510.316,24.9688 C 538.137,9.03906 570.109,0 604.234,0 c 34.414,0 66.672,9.17969 94.352,24.9688 L 951.672,171.199 c 56.488,33.145 94.058,94.129 94.198,162.723 V 447.711 L 828.207,582.465 416.684,344.402 280.609,265.613 c -27.386,-15.5 -59.078,-24.531 -92.918,-24.531 -33.699,0 -65.527,8.75 -92.9137,24.395 v 0" /><path
         id="path32"
         style="fill:url(#linearGradient30);fill-opacity:1;fill-rule:evenodd;stroke:none"
         d="m 1045.87,819.383 v -111.36 l -0.14,-370.222 c 0,69.883 -37.57,131.297 -93.917,164.16 l -131.204,75.906 -404.211,233.617 0.286,262.176 104.097,60.13 c 25.957,13.2 55.211,20.66 86.184,20.66 34.414,0 66.531,-9.18 94.344,-25.11 L 948.801,986.414 c 58.069,-33.152 97.069,-95.426 97.069,-167.031 v 0" /><path
         id="path40"
         style="fill:url(#linearGradient38);fill-opacity:1;fill-rule:evenodd;stroke:none"
         d="M 94.7773,265.477 C 38.1406,297.762 0,358.895 0,428.922 v 295.605 c 0,66.012 33.8398,123.985 85.1719,157.563 l 104.5231,60.414 310.582,179.376 c -50.472,-34.16 -83.734,-91.99 -83.734,-157.567 l 0.141,-619.911 -136.075,-78.789 c -27.386,-15.636 -59.078,-24.531 -92.918,-24.531 -33.699,0 -65.527,8.75 -92.9137,24.395 v 0" /><path
         id="path42"
         style="fill:#231f20;fill-opacity:1;fill-rule:nonzero;stroke:none"
         d="m 4352.77,791.852 h -210.52 c -5.16,0 -9.51,4.218 -9.51,9.527 V 926.945 L 4048,912.266 V 444.813 c 0,-55.758 4.98,-125.083 40.42,-170.684 36.66,-47.18 95.96,-56.703 152.16,-56.703 47.28,0 89.09,8.75 132.95,27.172 l -15.76,67.789 c -21.39,-8.285 -41.66,-16.403 -64.61,-19.688 -29.03,-4.058 -65.71,-4.836 -93.47,4.547 -61.19,20.293 -66.95,93.848 -66.95,148.66 V 714.23 c 0,5.157 4.35,9.532 9.51,9.532 h 210.52 v 68.09" /><path
         id="path44"
         style="fill:#231f20;fill-opacity:1;fill-rule:nonzero;stroke:none"
         d="m 3427.03,446.391 c 15.3,95.582 -2.79,205.523 -69.28,279.242 -49.01,54.347 -116.25,80.746 -188.83,80.746 -72.57,0 -139.81,-26.399 -188.82,-80.746 -52.75,-58.41 -74.14,-137.278 -74.14,-214.899 0,-78.246 20.93,-155.859 74.14,-214.898 49.16,-54.52 116.42,-80.602 188.82,-80.602 72.58,0 139.82,26.25 188.83,80.602 37.78,41.855 60.41,95.258 69.28,150.555 z m -84.42,64.343 c 0,-56.687 -10.77,-115.726 -46.02,-161.644 -31.99,-41.707 -75.55,-61.375 -127.67,-61.375 -52.12,0 -95.66,19.668 -127.65,61.375 -30.73,40.133 -46.05,94.019 -46.05,161.644 0,67.782 15.32,121.664 46.05,161.801 31.99,41.695 75.53,61.223 127.65,61.223 52.12,0 95.68,-19.528 127.67,-61.223 35.25,-46.074 46.02,-104.949 46.02,-161.801 v 0" /><path
         id="path46"
         style="fill:#231f20;fill-opacity:1;fill-rule:nonzero;stroke:none"
         d="m 2110.39,285.527 c -34.33,0 -72.25,4.989 -102.06,23.262 -27,16.238 -40.42,44.973 -40.42,85.734 0,40.446 20.45,68.883 56.18,86.223 24.82,12.188 49.94,15.617 77.09,17.492 32.47,2.188 95.83,0.942 125.32,-13.117 3.59,-1.406 6.24,-4.84 6.24,-9.062 v -173.2 c 0,-4.375 -2.96,-8.285 -7.33,-9.211 -34.03,-8.121 -79.59,-8.121 -115.02,-8.121 z m -8.89,520.852 c -48.38,0 -112.36,-5.781 -158.24,-22.18 l 9.67,-67.152 c 4.06,1.402 8.74,2.648 13.58,4.058 9.98,2.497 21.38,5 34.33,7.493 26.38,5 56.96,7.496 91.6,7.496 34.34,0 66.33,-5.93 93.8,-27.485 21.38,-17.019 34.8,-41.386 40.57,-67.781 3.43,-15.305 9.21,-70.121 5.62,-84.336 -1.25,-5.152 -6.4,-8.273 -11.55,-6.871 -27.31,6.715 -60.71,12.336 -88.33,13.746 -35.11,1.871 -72.87,-1.719 -107.21,-9.371 -37.45,-8.433 -76.47,-24.836 -103.31,-53.105 -28.87,-30.453 -39.95,-66.067 -39.95,-107.461 0,-52.942 15.14,-103.696 59.62,-135.875 43.84,-31.696 103.62,-40.129 156.37,-40.129 46.97,0 93.31,3.742 139.67,9.523 25.9,3.137 51.65,7.028 77.56,11.403 v 355.156 c 0,54.039 -9.21,112.289 -46.2,153.992 -16.38,18.582 -38.23,32.949 -65.54,43.262 -31.84,12.023 -68.2,15.617 -102.06,15.617 v 0" /><path
         id="path48"
         style="fill:#231f20;fill-opacity:1;fill-rule:nonzero;stroke:none"
         d="m 3885.68,602.566 c 8.58,-27.175 12.96,-58.097 12.96,-92.929 0,-40.293 -5.3,-85.899 -21.54,-123.067 -28.71,-66.379 -83.79,-97.781 -154.34,-97.781 -46.65,0 -101.74,16.723 -138.25,46.399 -2.67,1.726 -4.23,4.691 -4.23,7.972 v 366.543 c 0,4.219 2.65,7.969 6.88,9.215 36.68,10.465 79.9,11.559 117.66,11.559 85.52,0 153.88,-44.047 180.86,-127.911 z m 102.22,-92.929 c 0,78.402 -20.76,158.211 -76.62,215.836 -54.45,56.07 -128.43,78.558 -205.37,78.558 -75.36,0 -137.78,-10.929 -210.35,-28.109 V 22.9883 h 84.72 V 245.859 c 0,7.489 8.29,12.18 14.68,7.954 39.48,-25.454 94.88,-37.485 141.24,-37.485 72.71,0 138.42,24.676 185.85,81.527 48.54,58.262 65.85,137.43 65.85,211.782 v 0" /><path
         id="path50"
         style="fill:#231f20;fill-opacity:1;fill-rule:nonzero;stroke:none"
         d="m 4935.17,446.391 c 15.3,95.582 -2.65,205.523 -69.13,279.242 -49.01,54.347 -116.42,80.746 -188.98,80.746 -72.57,0 -139.83,-26.399 -188.84,-80.746 -52.75,-58.41 -74.12,-137.278 -74.12,-214.899 0,-78.246 20.91,-155.859 74.12,-214.898 49.15,-54.52 116.59,-80.602 188.84,-80.602 72.56,0 139.97,26.25 188.98,80.602 37.61,41.855 60.24,95.258 69.13,150.555 z m -84.42,64.343 c 0,-56.687 -10.77,-115.726 -46.04,-161.644 -32,-41.707 -75.37,-61.375 -127.65,-61.375 -52.12,0 -95.66,19.668 -127.65,61.375 -30.59,40.133 -46.05,94.019 -46.05,161.644 0,67.782 15.46,121.664 46.05,161.801 31.99,41.695 75.53,61.223 127.65,61.223 52.28,0 95.65,-19.528 127.65,-61.223 35.27,-46.074 46.04,-104.949 46.04,-161.801 v 0" /><path
         id="path52"
         style="fill:#231f20;fill-opacity:1;fill-rule:nonzero;stroke:none"
         d="m 1702.93,927.414 c -58.05,14.363 -118.45,15.617 -177.75,13.277 -46.19,-1.718 -92.7,-4.843 -137.8,-15.152 V 229.77 h 85.21 v 267.066 c 52.43,0 106.59,-1.723 158.87,3.121 70.06,6.402 149.49,23.895 198.5,78.402 35.74,39.985 47.59,89.172 47.59,141.336 0,53.418 -13.57,100.895 -47.12,138.067 -32.93,36.699 -80.53,58.097 -127.5,69.652 z M 1521.9,868.066 c 17.01,0.629 36.05,0.786 57.12,0.786 26.06,0 52.28,-1.875 78.03,-6.25 23.41,-4.063 46.04,-11.403 66.48,-23.426 19.35,-11.242 34.96,-26.551 46.5,-45.762 12.95,-21.867 17.17,-47.633 17.17,-72.621 0,-38.891 -8.74,-74.34 -36.68,-102.301 -16.85,-16.707 -37.92,-27.484 -60.23,-34.824 -26.84,-8.742 -56.34,-12.492 -84.27,-14.523 -27,-1.875 -54.62,-2.032 -82.09,-1.875 -17.16,0 -34.33,0.156 -51.34,0.156 v 297.672 c 16.39,1.41 32.77,2.504 49.31,2.968 v 0" /><path
         id="path54"
         style="fill:#231f20;fill-opacity:1;fill-rule:nonzero;stroke:none"
         d="M 2389.89,777.176 V 229.77 h 84.74 v 481.027 c 0,4.527 3.12,8.59 7.64,9.371 37.93,7.652 79.59,11.398 117.99,11.398 46.19,0 93.16,-8.742 121.72,-48.726 21.69,-30.457 28.25,-71.688 31.22,-108.231 1.24,-15.461 1.87,-32.328 1.87,-50.445 V 229.77 h 84.74 v 316.726 c 0,19.68 -0.95,38.266 -2.82,55.754 -4.84,47.168 -15.29,93.086 -44.95,131.191 -43.53,56.067 -112.99,70.59 -180.54,70.59 -76.94,0 -146.55,-9.058 -221.61,-26.855 v 0" /><g
         transform="scale(10)"
         id="g56"><text
           id="text60"
           style="font-variant:normal;font-size:12px;font-family:MyriadSetPro;-inkscape-font-specification:MyriadSetPro-Text;writing-mode:lr-tb;fill:#231f20;fill-opacity:1;fill-rule:nonzero;stroke:none"
           transform="matrix(1,0,0,-1,497.694,74.6125)"><tspan
             id="tspan58"
             y="0"
             x="0 5.7236347">TM</tspan></text>
</g></g></g></svg>